<svg width="102" height="64" viewBox="0 0 102 64" fill="none" xmlns="http://www.w3.org/2000/svg">
<g clip-path="url(#clip0_72_1835)">
<path d="M91.9521 37.8791H94.5281V28.5289C95.3563 28.3218 96.2067 28.2236 97.0589 28.2368C98.484 28.2368 99.4482 28.718 99.4482 30.5063V37.8783H102V30.4314C102 27.0545 100.199 25.7282 97.1042 25.7282C95.3743 25.7282 93.2194 25.9954 91.9529 26.4984L91.9521 37.8791ZM87.3657 31.9276C87.3657 34.1939 86.8711 35.6433 84.5787 35.6433C82.2839 35.6433 81.7924 34.1947 81.7924 31.9276C81.7924 29.6613 82.305 28.2529 84.5787 28.2529C86.8492 28.2529 87.3657 29.6733 87.3657 31.9276ZM84.5787 38.1487C88.204 38.1487 89.9292 35.6908 89.9292 31.9276C89.9292 28.0203 88.3392 25.7282 84.5787 25.7282C80.9713 25.7282 79.1953 28.1643 79.1953 31.9276C79.1953 35.8606 80.8064 38.1487 84.5787 38.1487ZM70.9265 33.641C70.9265 37.0397 72.7274 38.1269 75.2332 38.1269C76.218 38.1437 77.1966 37.9633 78.1147 37.5958L77.7178 35.0872C76.9303 35.4447 76.0781 35.6258 75.2175 35.6184C74.1862 35.6184 73.5088 35.1371 73.5088 33.6659V28.479H77.678V25.9704H73.5025V22.8357H70.9265V33.641ZM66.3338 31.9276C66.3338 34.1939 65.8455 35.6433 63.5468 35.6433C61.2489 35.6433 60.7606 34.1947 60.7606 31.9276C60.7606 29.6613 61.2794 28.2529 63.5468 28.2529C65.8174 28.2529 66.3338 29.6733 66.3338 31.9276ZM63.5656 38.1487C67.1972 38.1487 68.9185 35.6908 68.9185 31.9276C68.9185 28.0203 67.3253 25.7282 63.5656 25.7282C59.9605 25.7282 58.1814 28.1643 58.1814 31.9276C58.1814 35.8606 59.7995 38.1487 63.5656 38.1487ZM46.1036 37.8791H48.6804V28.5289C49.5078 28.3188 50.3583 28.2206 51.2104 28.2368C52.6355 28.2368 53.5973 28.718 53.5973 30.5063V37.8783H56.1484V30.5063C56.1484 26.9571 54.2076 25.7282 51.3237 25.7282C50.4315 25.7093 49.5413 25.8226 48.6804 26.0646V21H46.1036V37.8791ZM34.018 43H36.594V37.8131C37.2167 38.0457 37.8754 38.1615 38.538 38.1487C42.0758 38.1487 44.087 35.8131 44.087 31.7586C44.087 27.8537 42.3048 25.7282 38.2817 25.7282C36.8246 25.7252 35.3773 25.9739 34 26.4638V43H34.018ZM41.4898 31.9276C41.4898 34.3894 40.8577 35.6433 38.4223 35.6433C37.7901 35.6882 37.158 35.5546 36.594 35.257V28.5007C37.1776 28.3079 37.7887 28.2186 38.4012 28.2368C40.7171 28.2368 41.4898 29.2025 41.4898 31.9115V31.9276Z" fill="white"/>
<path fill-rule="evenodd" clip-rule="evenodd" d="M9.26847 37.3046C9.33439 37.3794 9.40673 37.4517 9.47586 37.5217L9.69531 37.7347L5.75487 42.5076C5.52835 42.3086 5.30852 42.1022 5.09572 41.8886C4.88511 41.6795 4.67772 41.4713 4.48319 41.2486L9.25641 37.3046H9.26847ZM10.9139 38.6769L7.9783 44.1379C7.45958 43.8363 6.96023 43.5026 6.48315 43.1387L10.4083 38.3127C10.5747 38.4317 10.7411 38.5418 10.9139 38.6488V38.6769ZM8.34566 36.1076C8.44935 36.2772 8.5627 36.4468 8.68488 36.61L3.8779 40.5139C3.51305 40.0385 3.17929 39.5402 2.87872 39.0218L8.34244 36.0859L8.34566 36.1076ZM12.2957 39.349L10.4774 45.2554C9.91152 45.0634 9.35865 44.8349 8.82234 44.5712L11.7306 39.0974C11.9155 39.1826 12.1036 39.2605 12.2925 39.3265L12.2957 39.349ZM7.67284 34.7072C7.74197 34.8961 7.81995 35.0842 7.90515 35.2659L2.43179 38.1777C2.16524 37.6411 1.93561 37.087 1.7445 36.5192L7.67284 34.7072ZM13.774 39.7132L13.1551 45.8808C12.5597 45.7962 11.9703 45.6734 11.3906 45.5134L13.18 39.5966C13.3753 39.644 13.573 39.6818 13.774 39.7132ZM7.287 33.2255C7.31754 33.4265 7.35934 33.6243 7.40597 33.822L1.46878 35.6051C1.31488 35.0272 1.19835 34.4399 1.11991 33.847L7.287 33.2255ZM7.19536 31.7021V32.3115L1.02828 32.9112C0.990574 32.3129 0.990574 31.7128 1.02828 31.1144L7.19536 31.7021ZM15.2997 39.8008L15.8962 45.9717C15.2965 46.0094 14.7 46.0094 14.1004 45.9717L14.6968 39.8008C14.8978 39.8136 15.0987 39.8136 15.2997 39.8008ZM16.8166 39.5966L18.6059 45.5319C18.0255 45.6927 17.4379 45.8149 16.8415 45.8993L16.2225 39.7316C16.4211 39.6971 16.622 39.6625 16.8166 39.6159V39.5966ZM7.40677 30.1787C7.35934 30.3764 7.31835 30.575 7.287 30.7784L1.11991 30.1538C1.19835 29.5619 1.31488 28.9757 1.46878 28.3988L7.40677 30.1819V30.1787ZM18.2675 39.0974L21.1758 44.5712C20.6373 44.8349 20.0823 45.0634 19.5143 45.2554L17.7056 39.3265C17.8962 39.2577 18.0839 39.1812 18.2683 39.0974H18.2675ZM7.9156 28.7059C7.8304 28.8908 7.75162 29.0733 7.68249 29.2686L1.76138 27.4341C1.95672 26.8657 2.18903 26.3102 2.4559 25.7732L7.91641 28.7123L7.9156 28.7059ZM19.5874 38.3127L23.5085 43.1234C23.0311 43.4876 22.5359 43.8204 22.0174 44.1218L19.0842 38.6769C19.2538 38.5724 19.4202 38.4631 19.5866 38.3409L19.5874 38.3127ZM8.68408 27.4092C8.56242 27.5707 8.4492 27.7384 8.34485 27.9116L2.88676 24.9725C3.18901 24.458 3.5218 23.958 3.88594 23.4836L8.68408 27.4092ZM25.5141 41.2486C25.1159 41.6965 24.6913 42.1201 24.2425 42.5172L20.302 37.7339L20.5215 37.5209L20.7289 37.3038L25.5141 41.2486ZM5.75487 21.4867L9.69531 26.2596L9.47586 26.4702C9.40673 26.5426 9.33439 26.6149 9.26847 26.6873L4.49605 22.7456C4.69058 22.5262 4.89476 22.3059 5.10778 22.0929C5.3216 21.879 5.54185 21.6716 5.76452 21.4803L5.75487 21.4867ZM27.1194 39.0186C26.818 39.5403 26.4852 40.0395 26.121 40.5139L21.3165 36.5883C21.4395 36.4251 21.552 36.2555 21.6557 36.0859L27.1194 39.0218V39.0186ZM7.98152 19.8821L10.9204 25.3399C10.7476 25.4481 10.5779 25.5613 10.4115 25.6791L6.48959 20.8806C6.96385 20.5164 7.46304 20.1803 7.98152 19.8821ZM28.2528 36.5184C28.0617 37.0862 27.8321 37.6403 27.5655 38.1769L22.0922 35.2659C22.1774 35.0834 22.2529 34.8953 22.3253 34.7063L28.2528 36.5184ZM10.4943 18.7389L12.2998 24.6743C12.1076 24.7402 11.922 24.819 11.7371 24.9034L8.836 19.4263C9.3737 19.1623 9.92759 18.9328 10.4943 18.7389ZM28.8782 33.847C28.7938 34.4403 28.6714 35.0275 28.5117 35.6051L22.5922 33.822C22.6399 33.6246 22.6799 33.4253 22.7119 33.2247L28.8782 33.847ZM13.1567 18.1199L13.7756 24.2876C13.5747 24.3197 13.3769 24.3599 13.1816 24.4041L11.3922 18.4873C11.9719 18.3273 12.5613 18.2046 13.1567 18.1199ZM28.9699 31.1056C29.01 31.7021 29.01 32.2986 28.9699 32.8951L22.8028 32.305V31.6957L28.9699 31.1056ZM15.897 18.0283L15.3005 24.1991H14.6976L14.1012 18.0283C14.6992 17.9906 15.299 17.9906 15.897 18.0283ZM28.5261 28.3988C28.6893 28.976 28.8123 29.5637 28.8935 30.157L22.7264 30.7816C22.6972 30.58 22.6586 30.3799 22.6107 30.1819L28.5261 28.3988ZM18.6164 18.4865L16.8174 24.4033C16.6209 24.3581 16.4231 24.3193 16.2241 24.2868L16.8423 18.1191C17.4387 18.1979 18.0263 18.3112 18.6067 18.4648L18.6164 18.4865ZM21.1846 19.448L18.2675 24.9058C18.0841 24.819 17.8966 24.7412 17.7056 24.6726L19.5143 18.7445C20.0823 18.9365 20.6373 19.165 21.1758 19.4287L21.1846 19.448ZM27.5623 25.8287C27.826 26.3657 28.0551 26.922 28.2496 27.4872L22.3253 29.3241C22.2554 29.136 22.1742 28.9567 22.089 28.7614L27.5623 25.8287ZM23.4989 20.8733L19.5681 25.6751C19.4031 25.5564 19.2342 25.4433 19.0617 25.3359L21.9981 19.8749C22.5166 20.1731 23.0158 20.5059 23.4933 20.8733H23.4989ZM26.105 23.47C26.4699 23.9443 26.8027 24.4411 27.1041 24.9588L21.6501 27.8956C21.5447 27.7217 21.4315 27.5527 21.3108 27.3891L26.105 23.4611V23.47ZM24.2433 21.4859C24.4691 21.6805 24.683 21.8847 24.8992 22.0985C25.1162 22.3115 25.3172 22.5246 25.5149 22.7513L20.7425 26.6985C20.6755 26.6224 20.6053 26.5491 20.5319 26.479L20.3117 26.2652L24.2561 21.4923L24.2433 21.4859Z" fill="url(#paint0_linear_72_1835)"/>
</g>
<defs>
<linearGradient id="paint0_linear_72_1835" x1="3.52937" y1="23.9678" x2="26.4698" y2="40.0308" gradientUnits="userSpaceOnUse">
<stop offset="0.19" stop-color="#71D7FC"/>
<stop offset="0.29" stop-color="#67CAF1"/>
<stop offset="0.47" stop-color="#4EA9D5"/>
<stop offset="0.7" stop-color="#2574A9"/>
<stop offset="0.89" stop-color="#004480"/>
</linearGradient>
<clipPath id="clip0_72_1835">
<rect width="101" height="64" fill="white" transform="translate(0.5)"/>
</clipPath>
</defs>
</svg>
