<svg width="64" height="64" viewBox="0 0 64 64" fill="none" xmlns="http://www.w3.org/2000/svg">
<path d="M61.2568 25.4354L20.2358 2.66943L47.7008 43.4769L53.3448 39.7769L61.2568 25.4354Z" fill="url(#paint0_linear_72_1965)"/>
<path d="M44.8917 16.1523L39.7532 3.58984L28.3857 14.7808L33.0362 55.3873L44.0502 61.1838L61.2572 51.1328L44.8917 16.1523Z" fill="url(#paint1_linear_72_1965)"/>
<path d="M20.2362 2.66943L2.74316 14.4519L9.24666 54.6379L26.0207 61.0869L47.7017 43.4779L20.2362 2.66943Z" fill="url(#paint2_linear_72_1965)"/>
<path d="M13.7144 13.7144H50.2859V50.2859H13.7144V13.7144Z" fill="black"/>
<path d="M18.2734 43.3734H31.9879V45.6589H18.2734V43.3734ZM18.2854 18.2369H24.5634C25.2902 18.1922 26.0185 18.2926 26.706 18.5323C27.3936 18.772 28.0265 19.1461 28.5679 19.6329C28.9653 20.0514 29.2747 20.5454 29.4778 21.0856C29.6809 21.6258 29.7736 22.2013 29.7504 22.7779V22.8144C29.7958 23.7509 29.5315 24.6763 28.9983 25.4475C28.465 26.2186 27.6926 26.7927 26.8004 27.0809L30.1649 31.9939H26.6234L23.6794 27.5929H21.3334V31.9939H18.2859L18.2854 18.2369ZM24.3804 24.9419C25.8554 24.9419 26.7029 24.1554 26.7029 22.9974V22.9609C26.7029 21.6624 25.8009 20.9919 24.3259 20.9919H21.3334V24.9414L24.3804 24.9419ZM32.2614 18.2369H37.6254C41.9469 18.2369 44.9399 21.2054 44.9399 25.0759V25.1184C44.9399 28.9889 41.9534 31.9939 37.6254 31.9939H32.2614V18.2369ZM35.3089 20.9674V29.2569H37.6494C38.1991 29.2894 38.7494 29.2056 39.2645 29.0111C39.7796 28.8167 40.248 28.5159 40.639 28.1283C41.0301 27.7407 41.3351 27.2751 41.5342 26.7617C41.7333 26.2484 41.8219 25.6988 41.7944 25.1489V25.1124C41.8223 24.5604 41.7343 24.0087 41.5359 23.4929C41.3376 22.977 41.0333 22.5085 40.6428 22.1174C40.2523 21.7263 39.7842 21.4214 39.2686 21.2223C38.753 21.0232 38.2015 20.9343 37.6494 20.9614L35.3089 20.9674Z" fill="white"/>
<defs>
<linearGradient id="paint0_linear_72_1965" x1="47.1648" y1="29.6849" x2="10.1648" y2="8.45494" gradientUnits="userSpaceOnUse">
<stop stop-color="#DD1265"/>
<stop offset="0.48" stop-color="#DD1265"/>
<stop offset="0.94" stop-color="#FDB60D"/>
</linearGradient>
<linearGradient id="paint1_linear_72_1965" x1="25.1652" y1="6.37984" x2="39.8302" y2="46.8798" gradientUnits="userSpaceOnUse">
<stop offset="0.14" stop-color="#087CFA"/>
<stop offset="0.48" stop-color="#DD1265"/>
<stop offset="0.96" stop-color="#087CFA"/>
</linearGradient>
<linearGradient id="paint2_linear_72_1965" x1="14.1802" y1="7.62993" x2="25.0102" y2="46.1299" gradientUnits="userSpaceOnUse">
<stop offset="0.28" stop-color="#DD1265"/>
<stop offset="0.97" stop-color="#FDB60D"/>
</linearGradient>
</defs>
</svg>
