<svg width="64" height="64" viewBox="0 0 64 64" fill="none" xmlns="http://www.w3.org/2000/svg">
<path d="M32.0001 2.56006C15.7551 2.56006 2.56006 15.7551 2.56006 32.0001C2.56006 48.2451 15.7551 61.4401 32.0001 61.4401C48.2451 61.4401 61.4401 48.2451 61.4401 32.0001C61.4401 15.7551 48.2451 2.56006 32.0001 2.56006ZM32.0001 5.12006C46.8601 5.12006 58.8801 17.1401 58.8801 32.0001C58.8801 46.8601 46.8601 58.8801 32.0001 58.8801C17.1401 58.8801 5.12006 46.8601 5.12006 32.0001C5.12006 17.1401 17.1401 5.12006 32.0001 5.12006ZM30.2351 13.4401C20.19 15.8301 8.52006 28.0401 9.65506 37.2801C15.1201 27.6401 18.8201 26.3301 19.8251 26.3301C20.8351 26.3301 21.3801 26.8751 21.3801 28.0401V42.4051C21.3801 44.1901 19.655 43.9751 18.51 43.8001C22.75 50.1251 32.64 50.5601 32.64 50.5601L37.07 45.7451L41.3401 49.3951C47.8451 45.1851 52.1401 38.0501 52.1401 36.9701C48.9201 40.5201 46.1551 41.165 45.535 41.165C44.9151 41.165 43.905 41.0901 43.905 40.2351V23.1951C43.905 21.7151 47.975 16.8601 49.26 15.2251C40.795 17.4451 37.535 21.6751 37.535 21.6751C37.535 21.6751 36.395 20.8201 33.885 20.8201C34.825 21.6201 36.14 23.07 36.14 24.7801V40.3851C36.14 40.3851 33.34 42.4051 31.71 42.4051C30.08 42.4051 28.915 41.7101 28.915 40.4651V21.8251C28.915 21.8251 26.585 23.4601 26.585 18.6401C26.585 16.2351 30.2351 13.4401 30.2351 13.4401Z" fill="white"/>
</svg>
