<svg width="64" height="64" viewBox="0 0 64 64" fill="none" xmlns="http://www.w3.org/2000/svg">
<path d="M56.425 32.2651L60.035 26.1501C60.18 25.8451 60.2 25.4951 60.09 25.1801L52.94 4.70009C52.72 4.07509 52.065 3.72009 51.43 3.87509L30.415 8.99509C30.015 9.09509 29.685 9.38009 29.53 9.76509L27.295 15.3601H20.48C20.125 15.3601 19.78 15.5101 19.54 15.7701L4.17997 32.4101C3.70497 32.9251 3.72997 33.7251 4.23497 34.2051L20.345 49.5651C20.58 49.7951 20.9 49.9201 21.225 49.9201H28.57L30.81 55.5151C30.975 55.9301 31.345 56.2251 31.78 56.3001L54.13 60.1401C54.2 60.1551 54.275 60.1601 54.345 60.1601C54.94 60.1601 55.465 59.7501 55.595 59.1551L60.13 38.3801C60.2 38.0601 60.145 37.7251 59.97 37.4401L56.425 32.2651ZM27.295 15.3601L45.335 12.0551L35.84 30.7201H14.295L27.295 15.3601ZM28.575 49.9201L14.295 35.8401H35.84L47.04 52.6951L28.575 49.9201ZM51.695 49.7901L40.96 33.2801L50.345 14.6151L56.425 32.2701L51.695 49.7901Z" fill="white"/>
</svg>
